<?xml version="1.0" encoding="utf-8"?>
<!-- Generator: Adobe Illustrator 15.1.0, SVG Export Plug-In . SVG Version: 6.00 Build 0)  -->
<!DOCTYPE svg PUBLIC "-//W3C//DTD SVG 1.1//EN" "http://www.w3.org/Graphics/SVG/1.1/DTD/svg11.dtd">
<svg version="1.1" id="Layer_1" xmlns="http://www.w3.org/2000/svg" xmlns:xlink="http://www.w3.org/1999/xlink" x="0px" y="0px"
	 width="300px" height="85px" viewBox="0 0 300 85" enable-background="new 0 0 300 85" xml:space="preserve">
<path fill="#003399" d="M242.616,55.031c0.863,13.656,11.068,21.563,24.438,21.563c9.631,0,23.431-2.875,23.431-15.668
	c0-12.506-12.65-14.375-25.3-16.963c-12.793-2.587-25.443-5.894-25.443-20.987C239.741,8.313,253.972,4,266.479,4
	c15.668,0,27.313,6.756,27.313,23.575h-5.463c-0.144-13.369-9.488-18.831-21.85-18.831c-10.063,0-21.275,3.737-21.275,14.231
	c0,11.788,12.65,13.656,24.582,16.244c14.662,2.731,26.162,6.181,26.162,21.707c0,15.956-15.957,20.412-28.894,20.412
	c-16.819,0-29.47-9.056-29.901-26.306H242.616z"/>
<path fill="#003399" d="M211.136,22.113h0.431c2.875-9.632,14.95-17.394,28.319-16.819v5.462c-5.75-0.718-13.801,0.719-20.413,7.188
	c-5.462,5.607-7.763,10.207-8.337,21.275v40.394h-5.463V5.725h5.463V22.113z"/>
<path fill="#003399" d="M193.888,79.27h-5.462V64.95h-0.288c-3.45,8.769-13.369,16.387-27.456,16.387
	c-13.944,0-24.726-5.318-24.726-20.844c0-17.25,14.951-20.843,27.169-21.85c24.438-1.724,25.444-3.306,25.444-15.381
	c0-3.306-3.737-14.518-20.556-14.518c-13.225,0-21.994,6.899-22.712,19.693h-5.463C140.556,12.194,150.619,4,168.013,4
	c12.938,0,25.875,4.025,25.875,19.262V79.27z M188.425,37.638c-4.313,4.887-16.101,4.313-26.737,5.75
	c-12.938,1.438-20.269,6.038-20.269,17.106c0,8.913,6.469,16.101,19.406,16.101c24.869,0,27.6-21.275,27.6-25.156V37.638z"/>
<path fill="#003399" d="M72.565,43.387c-0.287,17.394,8.913,33.207,27.169,33.207c13.944,0,23.862-8.337,26.45-21.994h5.462
	c-2.875,17.25-14.375,26.737-31.912,26.737c-21.563,0-32.919-16.962-32.631-37.375C66.815,23.694,77.452,4,99.734,4
	c23.144,0,33.494,18.256,32.487,39.387H72.565z M126.759,38.644c-0.287-15.524-10.063-29.899-27.025-29.899
	c-16.387,0-26.019,15.237-27.169,29.899H126.759z"/>
<path fill="#003399" d="M9.462,55.031C10.325,68.688,20.532,76.594,33.9,76.594c9.631,0,23.432-2.875,23.432-15.668
	c0-12.506-12.65-14.375-25.3-16.963C19.238,41.375,6.588,38.069,6.588,22.975C6.588,8.313,20.818,4,33.325,4
	c15.669,0,27.313,6.756,27.313,23.575h-5.462c-0.145-13.369-9.488-18.831-21.85-18.831c-10.063,0-21.275,3.737-21.275,14.231
	c0,11.788,12.65,13.656,24.581,16.244C51.294,41.95,62.794,45.4,62.794,60.925c0,15.956-15.957,20.412-28.895,20.412
	c-16.819,0-29.469-9.056-29.9-26.306H9.462z"/>
</svg>
